<svg width="32" height="32" viewBox="0 0 32 32" fill="none" xmlns="http://www.w3.org/2000/svg">
<rect width="32" height="32" rx="8" fill="#F8F1EE"/>
<path d="M19.75 7.25H20.75C22.9591 7.25 24.75 9.04086 24.75 11.25V14.5C24.75 16.7091 22.9591 18.5 20.75 18.5H19.75V7.25Z" fill="#977669"/>
<path d="M7.25 9.75C7.25 8.36929 8.36929 7.25 9.75 7.25C11.1307 7.25 12.25 8.36929 12.25 9.75V18.5H11.25C9.04086 18.5 7.25 16.7091 7.25 14.5V9.75Z" fill="#977669"/>
<path d="M7.25 19.75H11.25C11.8023 19.75 12.25 20.1977 12.25 20.75V24.75H11.25C9.04086 24.75 7.25 22.9591 7.25 20.75V19.75Z" fill="#977669"/>
<path d="M13.5 11.25C13.5 9.04086 15.2909 7.25 17.5 7.25H18.5V20.75C18.5 22.9591 16.7091 24.75 14.5 24.75H13.5V11.25Z" fill="#977669"/>
</svg>
